<svg width="94" height="94" viewBox="0 0 94 94" fill="none" xmlns="http://www.w3.org/2000/svg">
<rect width="94" height="94" rx="15" fill="white"/>
<g filter="url(#filter0_d_2_237)">
<path fill-rule="evenodd" clip-rule="evenodd" d="M32.0754 23L27.8 23V35.8H37.3511C36.8992 34.4628 36.2304 33.1479 35.4989 31.7098C34.2994 29.3517 32.9314 26.6622 32.0754 23ZM38.0318 47.4616L26 62.6V71.6H45.4413C44.0611 68.766 42.7602 65.7354 41.6361 62.6C41.1872 61.3481 40.7666 60.0795 40.3803 58.8C39.2527 55.0647 38.4184 51.2368 38.0318 47.4616ZM46.1489 58.8C45.4003 54.6609 45.1017 51.0083 44.8827 48.3301V48.33C44.7287 46.4465 44.6141 45.0449 44.4101 44.2946C44.1519 43.3453 43.8831 42.321 43.6072 41.2698L43.6071 41.2695C43.5533 41.0643 43.4991 40.858 43.4448 40.6511L47.3003 35.8H42.1244C41.7868 34.6349 41.4481 33.5468 41.1139 32.6119C40.4329 30.7067 40.535 29.0348 40.6404 27.3091V27.3091C40.7082 26.1994 40.7773 25.0675 40.6405 23.837C40.6119 23.58 40.5646 23.2992 40.5016 23L49.7696 23C49.6764 25.535 49.716 28.7961 49.9472 32.4697C50.015 33.547 50.0992 34.6597 50.2015 35.8C50.6642 40.9616 51.4947 46.6877 52.8305 52.2445L47.6202 58.8H54.6898C54.7901 59.1016 54.8922 59.4017 54.9961 59.7002C55.7886 61.9764 55.0149 64.13 54.1142 66.6371C53.5771 68.1321 52.9949 69.7527 52.6727 71.6H49.8624C48.2264 67.7207 47.1567 63.8552 46.4347 60.2915C46.3327 59.7881 46.2377 59.2906 46.1489 58.8ZM60.5238 71.6H68.4V58.8H59.3975C60.2469 63.9678 60.5225 68.4076 60.5238 71.6ZM56.7464 47.3174L69 31.9V23H53.5351L54.0257 23.6473C53.3035 24.4942 52.5517 27.0624 53.0169 31.9C53.129 33.0657 53.3118 34.3631 53.5826 35.8C54.0745 38.4092 54.8568 41.4782 56.034 45.0528C56.2844 45.813 56.5216 46.5682 56.7464 47.3174Z" fill="#18181B"/>
</g>
<defs>
<filter id="filter0_d_2_237" x="20" y="19" width="55" height="60.6" filterUnits="userSpaceOnUse" color-interpolation-filters="sRGB">
<feFlood flood-opacity="0" result="BackgroundImageFix"/>
<feColorMatrix in="SourceAlpha" type="matrix" values="0 0 0 0 0 0 0 0 0 0 0 0 0 0 0 0 0 0 127 0" result="hardAlpha"/>
<feOffset dy="2"/>
<feGaussianBlur stdDeviation="3"/>
<feComposite in2="hardAlpha" operator="out"/>
<feColorMatrix type="matrix" values="0 0 0 0 0 0 0 0 0 0 0 0 0 0 0 0 0 0 0.25 0"/>
<feBlend mode="normal" in2="BackgroundImageFix" result="effect1_dropShadow_2_237"/>
<feBlend mode="normal" in="SourceGraphic" in2="effect1_dropShadow_2_237" result="shape"/>
</filter>
</defs>
</svg>
